# xmcd
#
# Track frame offsets:
# 183
# 12328
# 32125
# 57243
# 82433
# 99173
# 121753
# 146353
# 161868
# 195605
#
# Disc length: 2950 seconds
#
#
# Revision: 0
# Processed by: cddbd v1.5.2PL0 Copyright (c) Steve Scherf et al.
# Submitted via: Nero 7, 11, 10, 0 
#
DISCID=820b840a
DTITLE=J. Monque'D - New Orleans Bound
DYEAR=1996
DGENRE=Blues
TTITLE0=I Hear You Knockin'
TTITLE1=Honest I Do
TTITLE2=Woman In Rovigo
TTITLE3=Canzone Per Ludmilla
TTITLE4=Turnip Greens
TTITLE5=Scratch My Back
TTITLE6=Mean Old World
TTITLE7=Mighty Crazy
TTITLE8=Help Me
TTITLE9=(Gimme Dat) Old Time Religion
EXTD=
EXTT0=I Hear You Knockin'
EXTT1=Honest I Do
EXTT2=Woman In Rovigo
EXTT3=Canzone Per Ludmilla
EXTT4=Turnip Greens
EXTT5=Scratch My Back
EXTT6=Mean Old World
EXTT7=Mighty Crazy
EXTT8=Help Me
EXTT9=(Gimme Dat) Old Time Religion
PLAYORDER=
